<?xml version="1.0" encoding="UTF-8"?>
<svg id="Capa_1" data-name="Capa 1" xmlns="http://www.w3.org/2000/svg" viewBox="0 0 74.6052 69.6297">
  <path d="M25.2544,41.5967c-1.4511-2.047-2.2165-4.5086-2.0213-7.1436,.5059-6.8258,7.2151-12.1973,14.9855-11.9976,1.9515,.0502,3.7838,.4479,5.4265,1.1223l.1973-.1933L68.1917,0l-15.3356,4.6105c-4.0239-1.4952-8.4465-2.3732-13.1301-2.4936C19.1686,1.5884,1.4186,15.7993,.0802,33.8579c-.6692,9.0293,2.8913,17.3109,9.1887,23.4012l15.9856-15.6624Z" style="fill: #d3d3d3;"/>
  <path d="M65.3365,12.3706l-15.9849,15.6634c1.4505,2.0468,2.2157,4.508,2.0205,7.1426-.5059,6.8258-7.2151,12.1973-14.9855,11.9976-1.9504-.0502-3.7818-.4474-5.4238-1.121L6.4135,69.6297l15.3357-4.6106c4.0239,1.4953,8.4464,2.3733,13.13,2.4937,20.5574,.5285,38.3075-13.6825,39.6459-31.741,.6692-9.0293-2.8912-17.3109-9.1886-23.4013Z" style="fill: #d3d3d3;"/>
</svg>