<?xml version="1.0" encoding="UTF-8"?>
<svg id="Capa_1" data-name="Capa 1" xmlns="http://www.w3.org/2000/svg" viewBox="0 0 87.6617 101.2231">
  <g>
    <polygon points="9.8309 30.9816 30.0102 28.5691 0 25.3058 17.8312 49.6638 9.8309 30.9816" style="fill: #d3d3d3;"/>
    <polygon points="43.8309 11.3517 56.0098 27.6213 43.8309 0 31.6519 27.6213 43.8309 11.3517" style="fill: #d3d3d3;"/>
    <polygon points="87.6617 25.3058 57.6516 28.5691 77.8309 30.9816 69.8305 49.6638 87.6617 25.3058" style="fill: #d3d3d3;"/>
    <polygon points="9.8309 70.2415 17.8312 51.5594 0 75.9174 30.0102 72.654 9.8309 70.2415" style="fill: #d3d3d3;"/>
    <polygon points="77.8309 70.2415 57.6516 72.654 87.6617 75.9174 69.8305 51.5594 77.8309 70.2415" style="fill: #d3d3d3;"/>
    <polygon points="43.8309 89.8714 31.6519 73.6018 43.8309 101.2231 56.0098 73.6018 43.8309 89.8714" style="fill: #d3d3d3;"/>
  </g>
  <g>
    <polygon points="53.228 51.9692 48.8157 59.6116 37.8461 59.6116 33.4324 51.9669 22.4623 50.3644 18.5005 64.2361 33.2541 67.9311 43.8309 78.8606 54.4077 67.9311 69.1613 64.2361 65.16 50.2263 53.228 51.9692" style="fill: #d3d3d3;"/>
    <polygon points="33.4727 48.1865 37.8461 40.6116 48.8157 40.6116 53.1879 48.1844 65.0211 49.7401 64.9844 49.6116 69.1613 34.9871 54.4077 31.2921 43.8309 20.3625 33.2541 31.2921 18.5005 34.9871 22.6757 49.606 33.4727 48.1865" style="fill: #d3d3d3;"/>
  </g>
</svg>