<?xml version="1.0" encoding="UTF-8"?><svg id="a" xmlns="http://www.w3.org/2000/svg" viewBox="0 0 72 68.1394"><defs><style>.c{fill:#d3d3d3;}</style></defs><g id="b"><circle class="c" cx="36" cy="34.0697" r="7.322"/><path class="c" d="M11.6331,51.4366c-4.1736,4.1736-6.7318,9.3213-7.6519,14.6144,5.1358-.9837,10.113-3.5079,14.1694-7.5643,4.1736-4.1736,6.7318-9.3213,7.6519-14.6144-5.1358,.9837-10.113,3.5079-14.1694,7.5643Z"/><path class="c" d="M53.3669,58.4366c4.1736,4.1736,9.3213,6.7318,14.6144,7.6519-.9837-5.1358-3.5079-10.113-7.5643-14.1694-4.1736-4.1736-9.3213-6.7318-14.6144-7.6519,.9837,5.1358,3.5079,10.113,7.5643,14.1694Z"/><path class="c" d="M60.3669,16.7029c4.1736-4.1736,6.7318-9.3213,7.6519-14.6144-5.1358,.9837-10.113,3.5079-14.1694,7.5643-4.1736,4.1736-6.7318,9.3213-7.6519,14.6144,5.1358-.9837,10.113-3.5079,14.1694-7.5643Z"/><path class="c" d="M18.6331,9.7029C14.4595,5.5292,9.3119,2.9711,4.0188,2.0509c.9837,5.1358,3.5079,10.113,7.5643,14.1694,4.1736,4.1736,9.3213,6.7318,14.6144,7.6519-.9837-5.1358-3.5079-10.113-7.5643-14.1694Z"/><g><path class="c" d="M47.6268,0c7.2606,6.6871,12.1698,19.4343,12.1698,34.0697s-4.9092,27.3825-12.1698,34.0697c14.1746-4.8364,24.3732-18.2577,24.3732-34.0697S61.8013,4.8365,47.6268,0Z"/><path class="c" d="M12.2034,34.0697C12.2034,19.4343,17.1126,6.6871,24.3732,0,10.1987,4.8365,0,18.2577,0,34.0697s10.1987,29.2333,24.3732,34.0697c-7.2606-6.6872-12.1698-19.4343-12.1698-34.0697Z"/></g></g></svg>