<?xml version="1.0" encoding="UTF-8"?><svg id="a" xmlns="http://www.w3.org/2000/svg" viewBox="0 0 76 76"><defs><style>.c{fill:#d3d3d3;}</style></defs><g id="b"><path class="c" d="M51.6119,13.6119c0,7.5177-7.9802,24.3881-13.6119,24.3881s-13.6119-16.8704-13.6119-24.3881S30.4823,0,38,0s13.6119,6.0943,13.6119,13.6119Z"/><path class="c" d="M13.6119,24.3881c7.5177,0,24.3881,7.9802,24.3881,13.6119,0,5.6317-16.8704,13.6119-24.3881,13.6119-7.5177,0-13.6119-6.0943-13.6119-13.6119,0-7.5177,6.0943-13.6119,13.6119-13.6119Z"/><path class="c" d="M24.3881,62.3881c0-7.5177,7.9802-24.3881,13.6119-24.3881,5.6317,0,13.6119,16.8704,13.6119,24.3881,0,7.5177-6.0943,13.6119-13.6119,13.6119-7.5177,0-13.6119-6.0943-13.6119-13.6119Z"/><path class="c" d="M62.3881,51.6119c-7.5177,0-24.3881-7.9802-24.3881-13.6119s16.8704-13.6119,24.3881-13.6119c7.5177,0,13.6119,6.0943,13.6119,13.6119,0,7.5177-6.0943,13.6119-13.6119,13.6119Z"/></g></svg>