<?xml version="1.0" encoding="UTF-8"?><svg id="a" xmlns="http://www.w3.org/2000/svg" viewBox="0 0 477.2207 141.0493"><defs><style>.b{fill:#d4af37;}</style></defs><g><g><polygon class="b" points="23.1826 50.0947 43.8471 47.6242 13.1154 44.2824 31.3753 69.226 23.1826 50.0947"/><polygon class="b" points="58 29.9929 70.4718 46.6536 58 18.3683 45.5282 46.6536 58 29.9929"/><polygon class="b" points="102.8846 44.2824 72.1529 47.6242 92.8174 50.0947 84.6247 69.226 102.8846 44.2824"/><polygon class="b" points="23.1826 90.2984 31.3753 71.1672 13.1154 96.1108 43.8471 92.769 23.1826 90.2984"/><polygon class="b" points="92.8174 90.2984 72.1529 92.769 102.8846 96.1108 84.6247 71.1672 92.8174 90.2984"/><polygon class="b" points="58 110.4003 45.5282 93.7396 58 122.0249 70.4718 93.7396 58 110.4003"/></g><g><polygon class="b" points="67.623 71.5869 63.1046 79.413 51.8713 79.413 47.3515 71.5845 36.1177 69.9435 32.0606 84.1487 47.1689 87.9325 58 99.1248 68.8311 87.9325 83.9394 84.1487 79.8419 69.802 67.623 71.5869"/><polygon class="b" points="47.3928 67.7133 51.8713 59.9562 63.1046 59.9562 67.582 67.7111 79.6997 69.3041 79.6621 69.1726 83.9394 54.1965 68.8311 50.4126 58 39.2204 47.1689 50.4126 32.0606 54.1965 36.3362 69.1668 47.3928 67.7133"/></g></g><rect class="b" y="130.6512" width="116" height="5.3737"/><rect class="b" y="3.0249" width="116" height="5.3737"/><g><path class="b" d="M133.9941,12.311h19.5439c10.5537,0,15.1104,5.4614,15.1104,12.2954,0,8.2354-5.6299,12.7847-14.8604,12.7847h-14.334v17.0483h-5.46V12.311Zm5.46,20.4131h13.4746c5.959,0,10.1572-1.7314,10.1572-8.0283,0-4.9375-3.3398-7.7329-10.1572-7.7329h-13.4746v15.7612Z"/><path class="b" d="M219.2139,33.2495c0,11.9336-8.084,22.0786-22.0693,22.0786-13.4795,0-22.0068-9.7437-22.0068-22.1079,0-11.6978,8.7061-21.7979,22.1416-21.7979,13.3047,0,21.9346,10.1152,21.9346,21.8271Zm-38.3047-.1924c0,9.1895,5.707,17.6328,16.4004,17.6328,10.5176,0,16.1318-7.9033,16.1318-17.3223,0-8.877-5.7197-17.3076-16.5029-17.3076-10.0146,0-16.0293,7.8862-16.0293,16.9971Z"/><path class="b" d="M228.7773,12.311h5.4453v21.0283c6.498-5.48,17.3555-14.3018,25.3369-21.0283h7.1514l-21.624,18.0366,22.9111,24.0918h-7.167l-19.8926-21.146-6.7158,5.3267v15.8193h-5.4453V12.311Z"/><path class="b" d="M304.7188,34.6079h-25.4736v15.1777h28.0801l-.7568,4.6538h-32.7686V12.311h32.252v4.6538h-26.8066v12.9893h25.4736v4.6538ZM302.541,.0059l-11.5879,8.2339h-5.5283L295.4492,.0059h7.0918Z"/><path class="b" d="M133.9941,83.3999h19.5439c10.5537,0,15.1104,5.4619,15.1104,12.2959,0,8.2354-5.6299,12.7842-14.8604,12.7842h-14.334v17.0488h-5.46v-42.1289Zm5.46,20.4131h13.4746c5.959,0,10.1572-1.7305,10.1572-8.0273,0-4.9385-3.3398-7.7334-10.1572-7.7334h-13.4746v15.7607Z"/><path class="b" d="M178.9258,112.3833l-5.6455,13.1455h-5.6973l18.251-42.1289h6.5215l18.9629,42.1289h-5.9355l-5.8838-13.1455h-20.5732Zm18.7471-4.6973c-5.2939-11.8643-7.7793-17.4434-8.7412-20.2588h-.0596c-.8594,2.7119-3.8174,10.0225-8.1787,20.2588h16.9795Z"/><path class="b" d="M221.2471,113.3247c1.5674,5.0859,5.2656,8.6787,13.7129,8.6787,8.4893,0,11.8135-3.3545,11.8135-7.4199,0-4.2871-2.3672-6.9463-13.4609-8.8105-12.4355-2.1045-15.5137-5.9893-15.5137-11.7344,0-7.291,6.9072-11.5117,15.9893-11.5117,13.6123,0,16.7559,7.1387,17.2305,11.3184h-5.5342c-.8867-2.957-2.7207-6.875-11.8311-6.875-6.1973,0-10.2754,2.1299-10.2754,6.5332,0,3.5625,1.7178,5.8525,11.4805,7.4805,15.1094,2.5479,17.5527,7.2578,17.5527,13.0498,0,6.6367-5.3037,12.3682-17.8096,12.3682-11.6035,0-17.5557-5.3037-18.9326-13.0771h5.5781Z"/><path class="b" d="M264.2549,113.3247c1.5674,5.0859,5.2656,8.6787,13.7129,8.6787,8.4893,0,11.8135-3.3545,11.8135-7.4199,0-4.2871-2.3672-6.9463-13.4609-8.8105-12.4355-2.1045-15.5137-5.9893-15.5137-11.7344,0-7.291,6.9072-11.5117,15.9893-11.5117,13.6123,0,16.7559,7.1387,17.2305,11.3184h-5.5342c-.8867-2.957-2.7207-6.875-11.8311-6.875-6.1973,0-10.2754,2.1299-10.2754,6.5332,0,3.5625,1.7178,5.8525,11.4805,7.4805,15.1094,2.5479,17.5527,7.2578,17.5527,13.0498,0,6.6367-5.3037,12.3682-17.8096,12.3682-11.6035,0-17.5557-5.3037-18.9326-13.0771h5.5781Z"/><path class="b" d="M304.9023,83.3999h19.5439c10.5537,0,15.1104,5.4619,15.1104,12.2959,0,8.2354-5.6299,12.7842-14.8604,12.7842h-14.334v17.0488h-5.46v-42.1289Zm5.46,20.4131h13.4746c5.959,0,10.1572-1.7305,10.1572-8.0273,0-4.9385-3.3398-7.7334-10.1572-7.7334h-13.4746v15.7607Z"/><path class="b" d="M390.1221,104.3384c0,11.9336-8.084,22.0791-22.0693,22.0791-13.4795,0-22.0068-9.7441-22.0068-22.1084,0-11.6973,8.7061-21.7969,22.1416-21.7969,13.3047,0,21.9346,10.1143,21.9346,21.8262Zm-38.3047-.1914c0,9.1885,5.707,17.6328,16.4004,17.6328,10.5176,0,16.1318-7.9033,16.1318-17.3223,0-8.8779-5.7197-17.3076-16.5029-17.3076-10.0146,0-16.0293,7.8857-16.0293,16.9971Z"/><path class="b" d="M405.1172,107.1489v18.3799h-5.415v-42.1289h19.7852c8.5059,0,14.3096,3.8555,14.3096,11.3613,0,5.0518-2.4619,8.707-7.7422,10.0547,2.8955,.7842,6.6318,2.9434,6.6318,10.2891v1.8232c0,3.2705-.0156,6.8516,.4883,8.6006h-5.5635c-.623-1.8359-.5205-5.1191-.5205-8.5459v-1.4062c0-6.4443-2.5117-8.4277-10.042-8.4277h-11.9316Zm0-4.5479h12.959c6.7725,0,10.127-2.3662,10.127-7.5547,0-4.7461-3.3701-7.0986-9.8916-7.0986h-13.1943v14.6533Z"/><path class="b" d="M454.9209,88.0835h-16.207v-4.6836h37.8887v4.6836h-16.1924v37.4453h-5.4893v-37.4453Z"/></g></svg>